<!-- Generated by IcoMoon.io -->
<svg version="1.1" xmlns="http://www.w3.org/2000/svg" width="194" height="32" viewBox="0 0 194 32">
<title>rw-logo</title>
<path d="M50.728 15.299c0.462-0.611 0.693-1.354 0.693-2.228 0-0.722-0.128-1.325-0.381-1.809-0.255-0.483-0.598-0.867-1.030-1.153s-0.934-0.506-1.509-0.628-1.18-0.2-1.82-0.2h-4.681v12.436h2.764v-5.052h1.19l2.627 5.052h3.32l-3.195-5.241c0.888-0.163 1.562-0.567 2.023-1.178v0zM67.803 9c-0.615 0-1.213 0.085-1.793 0.253s-1.091 0.422-1.535 0.76c-0.444 0.338-0.799 0.758-1.065 1.258s-0.399 1.084-0.399 1.747c0 0.687 0.145 1.241 0.435 1.66s0.654 0.757 1.092 1.014c0.437 0.256 0.911 0.46 1.42 0.611s0.982 0.303 1.42 0.454 0.802 0.335 1.092 0.55c0.29 0.216 0.435 0.509 0.435 0.882 0 0.222-0.056 0.414-0.169 0.577s-0.26 0.297-0.444 0.401-0.391 0.184-0.621 0.236c-0.231 0.052-0.459 0.079-0.683 0.079-0.462 0-0.908-0.102-1.34-0.306-0.432-0.203-0.79-0.492-1.074-0.864l-1.97 2.131c0.603 0.548 1.254 0.944 1.952 1.188s1.455 0.367 2.272 0.367c0.65 0 1.269-0.082 1.855-0.245s1.1-0.413 1.544-0.751 0.796-0.763 1.056-1.276c0.26-0.513 0.39-1.112 0.39-1.799 0-0.722-0.142-1.299-0.426-1.73s-0.642-0.775-1.074-1.031-0.896-0.454-1.393-0.594c-0.497-0.14-0.962-0.279-1.393-0.419s-0.79-0.308-1.074-0.507c-0.284-0.198-0.426-0.483-0.426-0.856 0-0.233 0.059-0.431 0.177-0.594s0.272-0.294 0.462-0.393c0.189-0.099 0.39-0.172 0.604-0.218s0.42-0.070 0.621-0.070c0.343 0 0.707 0.067 1.091 0.201s0.689 0.341 0.914 0.62l1.899-2.044c-0.532-0.466-1.13-0.798-1.793-0.996s-1.349-0.297-2.059-0.297zM79.359 9c-0.982 0-1.888 0.152-2.716 0.454s-1.544 0.737-2.148 1.302-1.074 1.249-1.411 2.053c-0.337 0.803-0.506 1.701-0.506 2.691s0.169 1.887 0.506 2.691c0.338 0.804 0.808 1.488 1.411 2.054s1.319 0.999 2.148 1.302c0.828 0.303 1.734 0.454 2.716 0.454s1.887-0.152 2.716-0.454c0.828-0.303 1.544-0.736 2.147-1.302s1.074-1.249 1.412-2.054c0.337-0.803 0.506-1.7 0.506-2.691s-0.169-1.887-0.506-2.691c-0.338-0.804-0.808-1.488-1.412-2.053s-1.319-0.999-2.147-1.302c-0.829-0.303-1.734-0.454-2.716-0.454zM61.345 9.282h-8.291v12.436h8.686v-2.72h-5.922v-2.332h5.527v-2.72h-5.527v-1.943h5.527v-2.72zM46.397 11.614c0.248 0 0.503 0.021 0.763 0.056s0.492 0.104 0.693 0.203c0.201 0.1 0.367 0.243 0.497 0.429s0.195 0.437 0.195 0.752c0 0.338-0.074 0.601-0.221 0.787s-0.335 0.323-0.559 0.411c-0.225 0.087-0.477 0.089-0.755 0.107s-0.541-0.024-0.79-0.024h-1.456v-2.72h1.634zM90.166 9.282h-2.764v7.634c0 0.734 0.182 1.41 0.406 2.027s0.594 1.154 1.038 1.608 1.014 0.81 1.677 1.066c0.663 0.256 1.441 0.384 2.316 0.384 0.863 0 1.631-0.128 2.294-0.384s1.218-0.611 1.662-1.066c0.444-0.454 0.741-0.99 0.966-1.608s0.3-1.293 0.3-2.027v-7.634h-2.764v7.529c0 0.384-0.027 0.74-0.151 1.066s-0.281 0.609-0.506 0.847c-0.225 0.239-0.482 0.425-0.79 0.559s-0.641 0.201-1.007 0.201c-0.367 0-0.705-0.067-1.019-0.201s-0.582-0.32-0.807-0.559c-0.225-0.239-0.471-0.521-0.595-0.847s-0.258-0.682-0.258-1.066v-7.529zM100.036 9.282v12.436h2.764v-5.052h1.551l2.627 5.052h3.32l-3.195-5.241c0.888-0.163 1.562-0.567 2.024-1.178s0.692-1.354 0.692-2.228c0-0.722-0.128-1.325-0.381-1.809-0.255-0.483-0.598-0.867-1.030-1.153s-0.934-0.506-1.509-0.628-1.18-0.2-1.82-0.2zM79.359 11.516c0.591 0 1.127 0.099 1.606 0.297s0.891 0.475 1.234 0.83c0.343 0.356 0.606 0.778 0.79 1.267s0.275 1.019 0.275 1.59c0 0.583-0.092 1.116-0.275 1.599s-0.447 0.903-0.79 1.258-0.754 0.632-1.234 0.83c-0.479 0.198-1.015 0.297-1.606 0.297s-1.127-0.099-1.606-0.297-0.89-0.475-1.234-0.83c-0.343-0.355-0.606-0.775-0.79-1.258s-0.275-1.016-0.275-1.599c0-0.571 0.092-1.101 0.275-1.59s0.447-0.911 0.79-1.267c0.343-0.355 0.754-0.632 1.234-0.83s1.015-0.297 1.606-0.297zM117.344 9c-0.982 0-1.888 0.152-2.716 0.454s-1.544 0.737-2.148 1.302-1.074 1.249-1.411 2.053c-0.337 0.803-0.506 1.701-0.506 2.691s0.169 1.887 0.506 2.691c0.338 0.804 0.808 1.488 1.411 2.054s1.319 0.999 2.148 1.302c0.828 0.303 1.734 0.454 2.716 0.454 0.863 0 1.704-0.175 2.52-0.524s1.491-0.891 2.024-1.625l-2.308-1.695c-0.284 0.419-0.645 0.745-1.083 0.978s-0.941 0.35-1.509 0.35c-0.497 0-0.962-0.099-1.394-0.297s-0.808-0.475-1.127-0.83c-0.32-0.355-0.571-0.775-0.754-1.258s-0.275-1.016-0.275-1.599c0-0.571 0.092-1.101 0.275-1.59s0.437-0.911 0.763-1.267c0.325-0.355 0.71-0.632 1.154-0.83s0.926-0.297 1.447-0.297 0.979 0.087 1.376 0.262c0.396 0.175 0.73 0.426 1.003 0.752l2.13-1.712c-0.272-0.338-0.58-0.623-0.923-0.856s-0.701-0.42-1.074-0.559c-0.373-0.14-0.752-0.242-1.136-0.306s-0.754-0.096-1.109-0.096zM131.621 9.282h-8.686v12.436h9.081v-2.72h-6.317v-2.332h5.527v-2.72h-5.527v-1.943h5.922v-2.72zM134.348 9.282h-1.207l3.656 12.436h1.438l3.177-10.882h0.036l3.177 10.882h1.438l3.657-12.436h-1.207l-3.124 10.882h-0.036l-3.177-10.882h-1.491l-3.177 10.882h-0.036l-3.124-10.882zM156.109 9.282h-1.207l-5.485 12.436h1.225l1.42-3.498h6.656l1.367 3.498h1.314l-5.29-12.436zM104.795 11.614c0.248 0 0.503 0.021 0.763 0.056s0.492 0.104 0.692 0.203c0.201 0.1 0.367 0.243 0.497 0.429s0.195 0.437 0.195 0.752c0 0.338-0.074 0.601-0.222 0.787s-0.335 0.323-0.559 0.411c-0.225 0.087-0.477 0.089-0.754 0.107s-0.542-0.024-0.79-0.024h-1.817v-2.72h1.995zM12.945 20.706l7.133 7.133-4.161 4.161-7.133-7.133 4.161-4.161zM24.73 8.784l7.27 7.27-10.299 10.299-7.27-7.27 10.299-10.299zM10.298 5.647l7.271 7.27-10.299 10.299-7.27-7.27 10.298-10.299zM178.119 9c0.852 0 1.648 0.148 2.387 0.445s1.387 0.795 1.944 1.494v0l-0.959 0.787c-0.39-0.582-0.891-1.007-1.499-1.276-0.61-0.267-1.234-0.402-1.873-0.402-0.816 0-1.553 0.14-2.21 0.419s-1.216 0.664-1.677 1.153c-0.462 0.489-0.817 1.066-1.066 1.73s-0.373 1.38-0.373 2.149 0.124 1.485 0.373 2.149c0.249 0.664 0.604 1.241 1.066 1.73s1.021 0.874 1.677 1.153c0.657 0.28 1.393 0.419 2.21 0.419 0.32 0 0.651-0.038 0.994-0.113s0.678-0.192 1.003-0.349 0.636-0.356 0.932-0.594c0.296-0.239 0.557-0.527 0.781-0.865v0l0.958 0.716c-0.603 0.804-1.302 1.38-2.094 1.73s-1.651 0.524-2.574 0.524c-0.958 0-1.837-0.16-2.636-0.48s-1.482-0.769-2.050-1.345c-0.568-0.577-1.012-1.264-1.331-2.062s-0.479-1.669-0.479-2.612c0-0.944 0.16-1.811 0.479-2.604s0.764-1.476 1.331-2.053c0.568-0.576 1.252-1.028 2.050-1.354s1.678-0.489 2.636-0.489zM171.101 9.282v1.166h-4.343v11.271h-1.184v-11.271h-4.343v-1.166h9.87zM185.709 9.282v5.441h7.107v-5.441h1.184v12.436h-1.184v-5.83h-7.107v5.83h-1.184v-12.436h1.184zM155.452 10.664l2.84 6.779h-5.769l2.929-6.779zM16.083 0l7.133 7.133-4.161 4.161-7.133-7.133 4.161-4.161z"></path>
</svg>
