<svg width="1084" height="851" viewBox="0 0 1084 851" fill="none" xmlns="http://www.w3.org/2000/svg">
<path d="M314.704 824.076L312.943 822.465L311.712 820.713L310.814 818.716L310.09 816.516L311.176 816.351L312.681 816.49L314.436 817.47L315.764 818.498L317.198 818.834L319.283 817.768L318.585 819.841L315.116 822.601L314.704 824.076ZM504.671 874.612L506.718 878.679L507.418 879.724L507.442 879.757L505.051 880.637L503.405 878.853L503.155 876.164L504.671 874.612ZM596.263 45.6659L596.074 46.9382L596.018 49.2383L596.039 50.5695L598.315 51.6828L599.304 53.0346L599.572 55.158L599.784 55.6263L599.973 56.0386L600.83 55.8943L601.76 55.4349L603.468 55.2052L605.081 54.516L605.809 54.6014L607.313 55.323L608.097 55.8855L608.085 56.4009L607.864 57.0665L607.996 58.0207L608.574 59.885L608.968 60.3827L609.937 60.8304L610.794 60.96L611.795 60.8304L612.661 60.3297L613.111 59.3755L613.738 57.5141L614.925 56.7896L616.5 56.8456L618.971 57.5878L622.28 59.3313L623.161 59.1723L624.038 58.8571L624.989 58.8689L627.271 61.2309L627.575 65.2186L626.712 69.5568L625.501 72.9996L624.497 74.3574L621.229 77.8945L620.575 78.8133L621.574 81.1695L623.013 82.8069L624.768 83.823L626.712 84.3443L628.885 84.5298L630.233 84.0822L630.911 82.6126L631.102 79.7646L631.652 77.5852L633.019 76.0331L634.8 75.3558L636.593 75.8329L634.933 77.2672L634.288 78.6926L634.644 80.1475L635.987 81.6996L637.48 82.6096L642.082 83.4313L644.809 84.951L647.397 87.0744L650.377 86.8005L651.066 87.0715L652.379 87.9138L652.974 88.4145L655.721 88.7591L657.037 89.1419L658.006 90.2787L660.771 92.361L663.807 93.3535L670.131 93.8777L676.253 92.7703L678.379 93.5037L679.542 96.5165L679.869 97.3647L679.827 98.1246L679.56 98.6223L679.474 99.2055L679.919 100.195L680.726 100.984L681.506 101.081L682.28 100.967L683.084 101.102L685.808 102.801L687.218 103.988L690.298 108.141L690.413 108.603L690.26 109.075L690.242 109.481L690.766 109.725H692.056L692.403 109.834L692.863 110.488L692.751 111.189L692.739 111.834L693.505 112.344L694.129 112.246L695.457 111.331L696.155 111.092L696.293 108.518L698.316 108.574L702.6 110.585L705.024 110.394L706.943 109.242L710.76 106.218L711.448 106.922L712.07 106.68L712.62 105.856L713.053 104.781L714.272 105.935L714.455 106.044L719.066 108.857L720.008 110.871L722.134 111.124L724.434 110.491L725.862 109.884L725.685 111.763L726.147 113.634L727.104 115.236L728.415 116.317L728.901 116.915L729.004 117.677L729.224 118.375L730.061 118.752L731.071 119.044L731.618 119.536L731.986 120.081L732.446 120.558L735.579 121.803L738.326 121.547L744.45 119.282L749.321 118.555L750.81 117.542L752.121 117.342L756.346 118.449L757.615 119.079L759.317 122.101L760.554 123.579L761.735 123.406L763.964 120.245L765.371 118.826L766.811 118.308L769.005 120.187L769.178 120.537L769.152 120.988L769.208 121.432L769.596 121.803L771.184 122.116L772.732 122.036L775.759 121.235L777.075 121.792L786.969 121.503L789.784 121.883L790.826 121.503L791.356 120.614L791.515 120.349L791.598 118.608L791.056 116.97L790.105 115.766L788.98 115.359L789.463 114.273L789.757 113.813L790.349 113.345L789.472 112.123L790.588 109.092L790.414 106.78L790.791 105.225L792.62 104.501L794.795 104.342L796.191 104.483L798.932 105.57L800.319 105.876L801.862 105.726L803.226 105.967L806.656 108.008L809.011 108.93L809.7 109.46L810.964 110.721L811.818 111.077L812.571 110.68L813.316 110.07L814.129 109.805L814.8 110.064L816.114 111.142L816.72 111.507L823.49 111.967L825.147 112.485L826.552 113.751L827.332 115.304L827.93 116.979L828.742 118.47L830.106 119.468L830.983 119.58L833.633 118.72L843.412 118.749L845.276 119.259L844.931 120.793L845.335 121.226L846.083 121.267L846.748 121.627L848.153 124.162L849.678 126.28L851.015 129.979L852.163 131.484L851.81 132.135L851.368 133.225L851.271 134.241L851.936 134.691L851.928 135.107L850.614 137.389L850.352 138.614L852.14 138.376L853.535 139.624L853.806 141.327L852.234 142.469L851.783 142.587L850.438 143.203L852.726 146.784V148.133L853.635 148.81L858.444 149.452L859.091 149.364L860.01 148.854L860.511 148.242L860.855 147.623L861.297 147.117L866.303 146.463L868.847 145.388L869.709 142.484L869.998 142.148L870.236 142.028L870.457 142.116L870.663 142.449L871.606 142.793L872.566 142.782L873.452 142.366L874.206 141.471L874.444 141.627L874.6 141.848L874.656 142.119L874.615 142.449L876.075 143.058L881.007 143.739L882.674 144.437L887.129 147.5L888.993 147.936L890.477 148.018L891.708 148.563L892.791 150.371L893.834 154.394L894.587 156.055L896.145 157.419L897.123 158.049L898.197 158.22L900.265 157.987L901.569 157.655L902.488 157.057L903.824 155.622L905.721 154.165L906.098 153.54L906.695 151.953L907.072 151.39L908.335 150.786L912.084 151.261L916.989 149.72L919.483 149.452L921.697 150.707L922.648 151.499L927.268 153.682L929.739 154.226L931.002 154.288L931.585 156.023L932.831 157.699L934.365 158.918L935.834 159.31L937.442 160.226L938.328 160.526L939.155 160.502L939.688 159.978L940.354 158.238L940.969 157.672L942.503 157.631L946.154 158.886L947.904 159.215L950.029 159.095L949.997 158.629L949.013 157.516L948.292 155.46L948.925 154.533L952.273 151.876L953.678 151.155L955.303 151.031L958.412 151.511L960.07 151.246L961.342 150.436L963.739 148.095L965.011 147.335L966.292 147.199L967.652 147.246L968.98 147.023L971.589 144.982L974.156 145.974L975.511 145.079L976.356 145.261L978.679 145.323L979.203 145.473L979.713 146.66L980.337 147.668L981.109 148.489L982.06 149.096L983.694 149.614L985.72 149.847L987.796 149.747L991.22 149.149L991.04 150.601L990.363 152.904L990.705 154.592V156.429L991.727 157.964L993.063 159.03L994.833 158.715L996.688 158.641L997.733 160.146H998.275L999.129 159.324L1000.17 159.525L1002.07 160.815L1000.19 164.567L999.903 165.636L999.638 167.259L999.032 168.039L998.316 168.634L997.733 169.733L996.473 169.105L993.534 169.747L991.04 168.678L990.363 167.609L988.891 167.915L987.198 169.747L986.288 172.042L986.179 175.844L986.102 178.459L986.579 180.382L987.857 181.758L990.596 183.43L992.121 185.474L993.882 188.104L993.764 189.424L992.722 190.472L992.407 191.871L992.857 193.547L993.284 195.765L993.355 196.477L993.67 197.055L995.157 198.294L995.563 199.093L995.286 201.175L993.322 204.603L992.327 207.336L991.029 208.729L988.773 211.916L986.126 211.68L983.093 213.912L982.333 216.846L980.054 218.145L972.958 223.746L971.533 226.067L968.983 226.68L967.107 227.186L965.029 227.696L964.163 227.964L963.789 228.185L962.573 229.313L962.329 229.772L962.019 230.55L961.269 230.726L960.338 230.688L959.266 233.177L949.214 237.456L933.146 244.892L931.517 246.618L926.944 249.772L921.02 252.305L918.688 254.072L916.55 257.003L912.699 263.797L910.426 266.981L907.829 269.411L902.255 272.482L899.031 273.407L893.604 273.952L888.268 275.345L886.652 276.337L885.878 276.561L883.163 276.441L867.645 281.188L860.888 281.686L840.951 289.19L835.368 290.412L834.755 290.919L833.36 293.434L833.056 294.244L832.656 294.848L831.811 295.26L829.918 294.103L829.328 293.885L825.833 293.976L822.5 294.606L819.464 295.987L817.318 297.26L808.352 306.195L804.012 311.994L795.393 320.853L793.856 323.916L795.976 325.144L798.249 326.057L799.218 326.007L799.607 325.486L799.309 324.714L798.249 323.916L799.58 324.019L800.658 324.599L801.568 325.471L803.467 327.86L805.522 329.565L806.506 329.459L808.058 330.004L807.954 332.186L806.818 334.368L806.043 335.511L800.941 337.019L798.744 338.978L794.828 345.133L792.452 347.038L790.137 347.901L787.59 348.263L785.729 345.268L789.554 344.771L791.344 346.037L793.968 344.402L796.863 339.864L795.261 339.608L792.858 339.811L786.312 341.955L784.755 343.007L783.43 344.432L782.24 346.281L779.773 352.34L778.492 355.488L777.07 357.488L775.7 358.987L774.628 360.718L774.11 363.393L772.055 365.495L766.525 376.263L765.601 377.358L763.469 379.111L762.415 380.23L759.709 384.076L754.986 388.052L750.166 397.677L747.981 400.012L743.944 402.545L741.906 405.558L738.458 412.906L736.415 416.028L731.445 421.603L723.253 435.292L722.829 436.376L722.646 438.862L722.108 440.59L721.242 441.901L719.346 443.998L718.256 445.524L717.293 447.332L716.869 449.072L716.345 450.357L713.863 453.997L713.021 455.826L712.447 459.51L712.694 464.623L713.233 468.996L714.767 475.785L719.74 486.714L720.603 488.366L721.58 490.16L720.6 490.834L719.463 491.753L719.914 493.618L720.691 497.331L722.016 500.718L724.08 504.444L726.144 508.544L729.11 513.756L730.278 515.247L733.244 517.606L736.229 520.733L737.917 522.065L740.075 522.612L743.7 522.975L747.504 524.082L750.914 526.011L753.402 528.809L753.06 528.974L752.259 529.566L753.21 530.002L753.837 530.673L755.99 532.414L756.773 532.202L757.277 533.456L757.315 535.047L756.773 535.83L755.286 535.919L753.944 536.254L752.727 536.905L751.602 537.974L750.672 540.118L750.516 540.375L750.207 540.74L748.676 540.828L748.108 541.102L747.053 542.145L746.129 542.645L745.284 543.323L744.498 544.925L745.089 546.368L743.49 545.979L742.395 546.244L741.341 546.736L739.883 547.004L737.519 547.036L736.403 547.416L735.278 548.326L734.342 549.996L734.315 551.472L734.43 552.874L733.921 554.32L732.699 555.619L731.527 556.084H728.229L724.637 556.906L722.64 557.683L720.114 559.503L712.535 562.71L711.334 563.564L710.836 564.74L710.209 565.152L707.314 568.415L706.449 569.923L706.125 571.902L706.137 572.954L705.842 573.375L703.286 573.516L702.15 573.858L701.325 574.685L701.025 576.217L698.207 576.052L697.497 580.072L698.669 589.317L697.762 590.501L696.378 590.836L693.522 590.63L691.732 591.09L690.295 592.262L689.167 593.84L688.319 595.516L687.816 596.945L687.477 598.523L687.239 602.785L686.883 609.444L686.721 611.302L686.017 612.212L683.912 613.031L682.41 614.63L681.65 615.967L678.458 623.984L678.291 625.621L678.302 625.745L678.659 629.745L678.291 630.743L676.126 628.06L674.189 633.358L673.147 634.233L671.38 634.763L670.72 636.127L670.997 638.006L673.6 642.73L674.386 643.713L676.945 645.398L678.764 646.279L680.349 646.473L681.014 645.254L682.481 646.108L683.016 647.28L682.693 648.464L681.55 649.365L680.902 650.078L680.207 650.478H679.489L678.788 649.989L678.031 650.464L675.852 651.279L674.545 651.58L672.287 652.787H669.313L668.294 652.999L667.19 653.527L665.243 654.843L664.566 654.331L661.407 652.79L658.795 652.284L653.751 652.169L652.335 652.34L651.092 652.787L650.2 653.562L649.776 654.528L650.026 655.494L650.907 657.223L648.413 656.637L646.039 656.059L645.536 654.925L645.124 654.045L643.445 653.777L641.122 652.823L640.033 652.51L638.843 653.733L638.525 654.669L636.293 654.593L633.599 654.233L631.255 655.444L629.992 656.301L626.458 659.788L625.133 660.63L623.558 660.972L623.134 661.172L622.504 661.643L621.915 662.218L621.659 662.683L621.456 663.172L620.614 666.467L620.528 667.124L619.845 667.666L619.38 667.519L618.953 667.177L618.411 667.124L617.704 667.581L616.132 668.947L615.399 669.227L614.227 669.451L610.178 671.215L608.362 672.34L608.02 673.518L607.469 674.316L606.036 674.11L605.299 674.997L604.855 676.74L603.806 678.793L601.46 682.188L596.799 686.898L594.773 689.705L593.374 693.76L592.785 697.223L591.825 699.93L591.398 702.701L589.034 708.783L587.359 711.555L587.291 712.78L587.514 713.666L587.806 714.423L587.95 715.289L587.818 716.169L587.429 716.688L586.823 716.929L585.044 717.062L584.558 717.292L583.569 718.278L580.783 720.21L579.682 721.547L578.87 725.641L577.939 726.831L576.693 727.767L575.392 729.181L575.086 729.941L574.677 731.814L574.258 732.63L573.531 733.098L572.651 733.331L571.906 733.637L571.093 735.525L569.853 736.488L568.263 737.13L566.723 737.363L563.744 736.414L561.518 734.141L559.577 731.434L557.46 729.184L554.636 727.417L552.984 726.787L551.194 726.536L549.722 726.834L547.146 728.197L545.526 728.568L544.793 728.368L542.646 727.432L541.689 727.214L535.391 728.321L534.11 729.063L532.538 732.851L530.913 737.277L528.887 739.398L528.498 739.68L527.6 740.608L525.577 741.483L522.886 741.875L521.461 741.342L519.835 742.039L517.748 740.629L516.187 739.371L514.727 738.717L514.011 738.932L513.29 739.854L512.559 740.072L511.726 739.604L509.556 736.685L507.345 735.11L505.814 734.977L501.491 736.417L494.448 735.163L488.076 735.681L482.425 734.659L474.354 735.643L473.18 736.432L472.076 737.522L470.45 738.714L467.562 740.535L462.603 740.476L459.558 738.005L457.963 738.267L456.87 738.865L453.967 737.457L452.801 735.875L450.316 736.002L447.677 736.19L446.553 737.236L442.469 737.704L436.741 735.884L433.953 734.945L429.913 735.796L424.236 737.439L416.637 735.339L414.79 735.778L412.391 737.545L405.497 738.57L403.298 738.868L389.129 737.731L387.769 738.125L386.741 739.035L384.524 742.92L384.07 743.754L382.993 744.926L382.145 746.363L381.809 747.956L379.468 751.897L374.468 752.58L372.307 756.856L369.545 758.68L368.797 759.121L367.128 759.796L363.756 760.567L360.464 760.47L351.248 759.313L349.475 759.227L348.725 759.481L347.824 760.187L342.217 764.113L336.793 764.593L333.125 766.882L332.147 767.223L329.244 767.58L327.972 768.024L326.947 768.64L325.908 770.024L323.726 773.894L323.661 774.822L322.33 778.415L321.621 779.89L321.226 780.338L320.643 780.874L319.995 781.322L318.688 781.828L318.776 782.573L319.109 783.463L318.211 784.785L315.614 789.63L315.24 790.646L314.866 795.237H313.308L312.654 793.07L311.391 792.169L309.522 791.488L307.984 791.435L307.725 792.395L306.989 793.241L306.636 794.489L306.704 795.888L307.228 797.169L306.83 797.888L307.045 799.411L307.484 800.371L307.717 801.169L307.466 802.273L306.927 802.936L306.383 803.463L304.716 804.123L296.769 806.98L295.626 807.731L293.185 808.47L291.76 805.495L288.427 803.61L287.026 802.515L285.138 803.219L283.489 802.659L281.92 801.684L278.554 800.71L277.347 799.599L275.642 797.087L270.472 792.021L268.94 791.02L267.212 791.044L263.673 791.715L259.447 790.481L257.407 787.754L255.843 784.461L254.053 781.504L249.707 779.181L249.189 777.761L248.986 776.123L248.456 774.321L247.74 772.631L245.028 769.5L243.147 765.156L241.951 762.199L240.164 758.756L238.433 757.304L237.749 756.5L238.727 756.041L239.387 756.185L241.916 758.509L242.593 759.401L242.187 760.237L242.779 761.189L243.983 762.567L244.969 762.343L245.57 761.792L246.424 760.479L248.123 758.532L247.558 758.464L245.944 758.992L244.551 758.8L243.909 757.283L244.419 754.271L243.715 752.383L239.881 748.76L239.036 748.319L233.648 747.953L232.214 747.588L231.03 746.336L230.055 742.399L229.21 740.493L228.106 738.647L227.603 736.791L227.965 735.018L229.458 733.39L230.903 732.65L233.874 731.584L234.929 730.677L235.756 728.368L235.079 724.233L235.517 721.871L238.206 719.539L244.642 720.025L246.901 717.068L245.376 718.102L243.341 718.926L241.327 718.976L239.858 717.683L236.495 719L235.002 720.131L234.39 722.216L234.849 728.209L234.39 729.331L231.566 729.372L229.325 726.433L226.755 719.842L224.97 716.723L222.709 714.335L203.237 700.239L201.126 699.105L199.285 698.611L197.928 698.016L194.654 695.288L193.046 694.534L191.488 693.748L190.06 691.519L189.524 688.915L190.069 687.667L191.023 686.851L193.773 682.686L194.68 680.919L190.649 685.475L188.453 687.042L185.959 687.045V687.667L187.69 690.352L188.535 692.096L188.665 693.174L187.619 693.301L180.656 689.869L178.091 689.03L174.967 688.002L172.879 688.951L175.132 689.233L176.198 689.772L156.961 690.264L155.754 690.797L154.182 692.246L152.712 692.426L151.355 691.875L150.092 691.142L148.902 686.762L148.516 684.509L149.046 682.993L148.263 679.718L147.665 671.783L146.296 668.673L146.473 667.545L146.243 665.345L145.772 662.901L145.21 661.031L144.771 660.418L143.408 659.287L142.795 658.639L142.139 657.617L142.074 657.517L141.906 656.931L141.835 656.254L141.42 654.878L141.108 654.893L140.987 654.775L140.943 653.727L141.196 653.323L142.041 652.348L142.136 651.854L142.303 651.403L142.365 650.911L142.159 650.299L142.91 649.798L145.007 647.545L145.551 646.738L145.969 645.227L146.667 640.4L147.742 637.381L149.146 635.326L156.446 629.164L158.634 625.259L159.511 621.828L161.251 617.131L161.669 615.349L161.631 614.321L161.39 613.364L161.346 612.551L161.89 611.953L164.414 611.438L165.268 610.857L166.298 610.937L167.308 611.249L168.289 611.373L169.272 610.854L170.314 610.554L170.909 610.165L171.731 609.064L172.52 606.967L173.212 606.198L174.587 606.334L179.08 608.192L181.094 607.956L181.745 605.512L182.493 604.252L183.188 601.197L184.669 598.137L185.741 594.768L186.365 593.269L187.169 590.392L186.924 590.215L185.844 589.432L183.63 589.62L181.562 590.25L181.333 590.23L180.906 590.088L179.928 591.443L177.997 592.321L175.992 592.742L174.784 592.721L173.71 591.708L172.932 590.975L169.731 582.77L169.316 582.319L167.962 581.309L167.417 580.738L167.073 580.107L166.56 578.761L166.225 578.169L157.827 567.328L155.574 565.667L154.488 565.12L155.627 563.906L156.396 562.778L156.481 561.603L155.565 560.272L156.346 559.082L157.783 553.966L161.107 549.133L161.537 547.723L161.29 546.939L160.821 546.583L160.297 546.279L159.909 545.643L159.785 544.833L159.75 543.8L159.909 541.479L160.453 538.004L160.721 537.273L161.399 535.919L161.537 535.536L165.073 532.62L166.213 531.68L167.411 531.209L168.736 530.099L169.811 528.821L170.256 527.855L171.018 527.204L174.681 526.397L175.965 525.767L176.928 524.759L177.899 523.955L178.553 523.543L178.459 522.085L178.862 520.498L177.764 518.498L179.475 517.067L181.25 514.593L183.909 509.395L184.689 508.367L185.128 507.333L185.002 506.405L184.095 505.684L184.645 503.934L184.145 501.932L183.032 500.097L181.757 498.857L179.928 497.596L177.855 497.019L175.765 497.258L173.866 498.418L172.906 498.789L171.695 498.58L170.529 497.973L169.714 497.152L169.602 496.295L170.471 494.295L170.638 493.258L169.667 491.3L167.8 490.425L165.597 489.842L163.628 488.735L162.52 487.129L161.908 485.074L162.023 482.924L163.095 481.048L159.155 476.197L157.662 475.004L157.076 473.794L156.699 471.609L156.658 469.338L157.073 467.889L157.697 466.408L158.113 464.06L158.121 461.866L157.535 460.841L154.199 459.949L152.512 459.136L151.302 458.141L150.548 455.885L149.862 454.995L147.18 453.59L145.852 452.312L143.487 449.14L142.059 447.83L139.486 440.67L138.879 439.227L138.767 438.959L155.904 439.781L156.982 439.477L158.286 438.906L159.767 438.597L162.936 438.697L164.293 438.264L166.016 439.33L168.489 439.442L180.17 437.981L181.33 437.489L182.246 435.275L182.16 434.518L181.928 433.814L181.951 432.854L182.316 431.882L183.264 430.191L183.565 429.21L183.441 428.345L183.1 427.393L182.988 426.283L183.562 424.884L184.18 424.36L185.997 423.597L186.751 423.149L188.747 420.145L189.018 419.147L189.08 417.415L189.215 416.499L189.23 415.981L188.947 414.938L188.938 414.349L189.171 413.884L189.943 413.295L190.184 412.894L190.646 410.335L190.958 409.41L190.811 408.285L191.185 407.181L192.551 404.893L189.36 399.114L187.596 396.888L186.518 395.165L185.67 394.396L184.816 394.075L182.711 393.775L181.751 393.489L180.809 392.078L180.237 388.535L179.581 387.016L180.258 385.802L181.038 383.396L181.751 382.43L183.179 381.785L186.601 379.532L187.599 379.364L188.129 379.276L189.683 379.42L191.22 379.311L192.681 378.295L192.914 377.671L192.961 376.843L193.011 375.951L193.302 375.144L193.8 374.578L197.224 372.037L197.925 371.309L199.315 368.8L196.644 366.279L194.801 363.263L194.336 359.861L195.799 356.201L197.654 353.556L197.875 352.293L197.436 350.49L196.603 349.065L195.714 348.119L195.028 347.056L194.863 345.23L195.34 343.604L197.177 340.214L197.734 338.436L197.737 337.163L197.578 335.296L196.939 331.783L195.935 328.366L195.761 326.876V324.844L195.908 323.81L196.126 323.236L196.208 322.65L195.946 321.548L195.846 320.853L195.958 318.197L197.254 317.778L197.584 316.453L197.189 315.063L196.323 314.45L195.134 314.135L194.48 313.261L193.815 311.046L192.104 306.775L190.988 304.899L188.497 302.237L187.716 301.047L187.552 299.719L188.4 298.338L188.712 296.359L188.744 296.341L190.381 295.499L195.266 295.94L197.433 295.708L198.517 294.624L201.659 289.941L202.315 288.024L202.118 285.42L202.418 284.672L203.449 283.341L206.252 280.926L206.703 280.069L207.297 278.493L210.121 274.22L211.04 273.189L212.447 272.945L217.641 272.862L218.36 272.344L223.012 270.3L225.609 268.274L228.162 265.641L230.656 261.574L230.98 261.476L231.958 261.674L232.279 261.576L232.47 260.99L232.564 260.166L232.514 259.527L232.276 259.477L233.3 258.646L234.404 258.213L236.884 258.028L236.893 257.12L239.917 252.243L239.952 251.537L239.74 250.83L239.681 249.99L240.184 248.915L242.24 246.739L246.026 241.14L245.217 240.098L244.11 238.525L240.762 234.985L237.202 232.658L233.324 231.227L226.884 229.884L225.792 229.852L225.241 230.329L224.717 230.98L223.631 231.736L222.441 232.343L221.616 232.573L219.385 231.725L218.292 230.025L217.877 227.946L217.671 225.97L217.306 224.968L216.776 224.053L216.534 223.128L217.003 222.118L217.568 221.234L217.904 220.236L219.841 211.533L220.757 209.524L218.704 208.835L217.288 208.623L216.661 207.875L217.309 203.269L216.988 201.505L215.916 200.221L213.984 199.402L212.927 201.684L210.233 202.527L204.58 202.762L202.203 202.047L199.306 197.546L196.877 197.146L196.376 200.33L194.492 201.505L189.557 201.917L187.334 201.46L185.396 199.929L184.289 199.363L183.582 199.001L181.724 200.359L178.907 201.602L176.41 200.45L173.992 198.353L171.436 196.745L170.297 196.934L168.901 197.72L167.688 198.657L167.105 199.287L166.931 200.78L167.444 204.235L167.264 205.928L166.36 207.245L165.618 208.323L163.012 209.96L157.376 211.91L155.945 212.142L153.063 212.054L151.864 212.266L150.792 212.997L148.876 215.202L147.83 216.112L147.495 214.419L146.732 212.567L145.713 211.147L144.609 210.755L143.838 210.682L142.636 209.825L142.024 209.819L141.432 210.334L141.276 210.973L141.19 211.698L140.775 212.466L139.574 213.332L137.954 213.912L136.264 214.166L134.86 214.024L133.579 213.3L133.529 212.299L134.757 208.947L130.487 208.761L129.097 208.075L126.898 206.485L125.655 206.167L123.423 207.327L118.5 208.526L116.351 208.393L115.517 208.67L115.143 209.256L114.87 209.948L114.319 210.576L111.796 210.57L111.26 207.489L111.042 204.606L109.478 205.213L109.104 206.441L108.719 208.222L107.971 209.61L106.493 209.645L105.218 209.433L104.09 209.96L103.118 210.997L102.338 212.284L99.729 215.002L99.5788 215.046L96.1632 216.033L89.329 215.609L89.3526 215.406L89.6588 212.849L89.5292 211.436L88.9286 210.596L86.0871 209.48L85.189 207.577L85.3068 205.59L86.0607 203.666L89.1229 199.107L91.4373 196.822L93.7428 195.317L95.0031 194.248L95.8511 192.902L96.0307 191.038L95.3859 189.447L94.1756 188.263L92.6534 187.615L91.0044 187.777L89.594 188.431L88.3927 188.77L87.3827 187.972L87.1148 186.237L87.3562 181.634L86.6377 180.005L85.9252 178.974L83.5461 180.694L82.0885 181.292L80.7252 181.354L80.1275 181.498L79.4208 181.955L77.3832 183.816L76.0493 184.538L63.7855 186.529L62.2926 187.103L59.5602 188.991L58.1026 189.595L55.1964 189.674L53.8096 189.957L52.461 190.976L51.7719 192.051L50.9269 194.354L50.3232 195.432L48.6979 196.521L46.6544 197.146L44.8612 198.071L43.972 198.727L43.0857 200.477L41.8843 202.123L40.4298 203.348L38.7956 203.825L37.4587 204.597L36.1926 206.143L34.9324 207.271L33.6132 206.803L33.8134 205.327L32.2381 184.532L32.4825 182.676L33.3482 181.931L36.4959 181.869L37.9593 181.451L38.5512 180.468L38.1831 179.622L36.6726 178.889L36.3369 178.206L36.7314 177.835L38.7985 176.742L38.9987 176.294L39.193 175.281L39.6111 174.277L40.4474 173.823L40.8125 173.523L42.2936 171.626L46.4542 168.398L47.4936 167.963L47.8558 167.736L50.3939 165.335L51.8161 164.755L53.4238 163.627L53.9479 163.077L54.2247 162.19V158.903L54.1394 158.188L53.8419 158.096L53.1824 158.305L51.981 159.463L51.1183 161.483L50.0023 163.392L48.0354 164.234L46.4277 164.62L42.1346 166.617L41.2572 167.574L40.4003 167.771L36.2309 167.48L34.7056 167.968L35.0119 166.62L35.8216 164.249L35.8334 162.773H36.331L37.441 164.461L37.9004 163.648L37.9564 160.176L37.7973 159.298L37.6236 158.827L37.8974 158.556L39.0399 158.314L41.8932 158.983L42.2877 158.709L42.8708 157.316L45.8682 153.764L47.2227 152.512L49.8403 150.784L50.9799 149.658L51.554 148.103L50.8297 148.466L50.1848 148.419L49.3899 148.103L48.695 148.183L48.4388 148.289L48.2592 148.469L46.5072 149.547L44.5373 151.131L43.4273 151.779L41.7018 152.244L39.1872 152.48L36.6018 152.156L34.7027 150.975L34.049 149.762L33.6898 147.712L33.0715 146.569L32.0438 145.992L29.3054 145.518L28.7371 145.096L29.3378 144.045L30.7924 143.126L32.4413 142.452L33.6103 142.163L34.582 142.505L35.2298 143.409L35.2033 144.425L34.158 145.099L34.8558 145.559L35.9659 146.018L37.123 146.216L37.9534 145.901L38.2744 144.77L38.0623 143.503L38.0712 142.337L39.0399 141.495L38.0623 137.76L37.9564 135.905L38.2361 134.3L38.9633 133.013L39.9351 132.164L40.9803 131.852L42.0051 130.5L44.9231 123.877L45.5443 121.465H45.0497L44.5049 123.191L43.7246 124.869L42.6587 126.136L41.2572 126.631L39.7614 126.05L38.7956 124.693L37.9829 123.005L36.9288 122.11L35.7303 124.363L35.5389 125.706L36.334 126.628L34.6055 129.119L33.6721 129.735L32.5355 128.839L32.9625 127.706L31.8553 128.259L29.2377 130.315L30.3625 131.687L29.4291 132.429L26.5788 133.254L26.3491 133.82L25.7131 136.267L25.0477 136.517L24.4205 137.109L23.2692 138.479L22.0944 137.142L21.9206 135.163L21.5408 133.369L19.7564 132.583L18.561 131.425L18.9673 128.819L20.1038 126.053L21.105 124.419L21.052 123.126L21.3052 121.518L21.794 119.383L22.695 118.081L23.072 117.315L23.6903 116.558L24.6236 116.217L24.821 115.993L27.1147 114.673L29.1582 111.808L30.3595 110.689L32.2617 110.235L32.8093 109.472L33.3188 107.776L33.098 106.032L31.449 105.128L31.1192 107.605L29.8884 109.128L28.0658 109.929L25.9752 110.232L21.9413 109.628L20.2924 109.967L20.5544 111.775L18.7258 113.757L17.7247 114.285L16.22 113.993L15.1748 113.068L14.6447 111.669L14.2178 109.938L13.4611 108.014L14.4504 108.032L15.1924 107.626L15.7489 106.872L16.22 105.794L15.5752 104.542L14.477 103.794L12.9693 103.175L12.881 102.324L12.4688 100.881L12.3775 100.245L12.5394 99.821L13.2638 98.9875L13.4641 98.3249L13.567 97.3441L13.5023 96.655L12.9547 96.2367L11.5913 96.1042L10.8552 95.6507L9.61855 93.6509L8.63208 93.2092V93.8806L9.09737 95.0469L8.63801 95.6772L7.89299 95.8745L7.50435 95.7685L7.16576 94.3254L6.37959 94.1987L5.47857 94.776L4.78953 95.4386L4.19772 96.3663L3.40265 98.5398L2.8697 99.5029L2.50163 99.282L1.71546 96.758L1 96.1042V95.4386L1.52406 94.4019L3.1612 89.8458L3.22302 89.1743L3.39384 88.3085L3.64707 87.4514L3.9533 86.8418L4.25658 85.8876L3.7531 85.1866L2.57819 84.3149L1.98935 81.7379L2.65772 81.14L3.70305 81.0958L4.24481 80.1328L4.67173 78.1507L5.60518 77.2259L6.52974 76.5485L6.90364 75.2733L8.06678 76.2953L9.10914 76.5927L10.1396 76.2393L11.2968 75.2733L11.7239 74.699L11.9358 74.16L12.245 73.6299L12.9664 73.0556L13.6083 72.7199L14.1883 72.5432L15.6223 72.3753V71.5654L14.2796 72.2162L12.5011 72.6315L11.2115 72.5167L11.2968 71.5654L8.76166 72.8671L7.63689 72.7199L6.90364 70.8203L10.6756 67.183L13.255 65.7929L16.2348 67.1006L17.604 67.0741L19.0321 66.7943L20.045 66.3554L21.0461 65.466L22.0649 64.8534L22.8746 63.3602L23.2869 61.7375H23.8817L25.3362 63.0333L27.4622 62.9685L29.5616 62.1174L30.9308 61.0571L29.2553 61.1602L28.322 60.5211L27.1324 58.0855L26.7849 58.1208L25.8103 57.5789L25.1566 56.9133L25.7308 56.5923L26.5199 56.5246L29.7235 55.0874L33.095 52.796L35.589 52.1246L36.1837 51.3441L36.8139 50.811L37.7032 50.5636L38.7337 51.1497L41.2307 53.7031L42.5821 54.2892L44.0161 54.5248L47.0902 55.5468L48.5684 55.7824L50.7678 54.9342L53.574 53.3321L56.5538 52.422L59.2598 53.6207L63.4233 51.6209L64.0918 50.9377L64.3538 49.9746L65.0016 49.1353L65.8025 48.5492L67.4102 48.1486L67.7517 47.7098L67.9461 47.2062L68.4172 46.841L72.7632 45.6836L73.0519 47.1237L73.7615 48.1869L75.5193 49.7567L76.5352 48.5227L76.8149 47.5272L76.6059 44.9384L77.3361 43.5248L78.932 43.8016L81.2376 45.283L82.3771 45.6836L82.8835 46.6584L83.1809 47.8983L83.6992 49.0763L85.5277 50.9053L86.3404 51.9773L86.9027 53.6236L87.5152 51.8742L87.4769 50.1896L86.9027 46.8439L86.9469 45.1623L87.3268 44.1756L88.1895 43.4011L89.6618 42.3614L88.1012 41.6045L86.6554 41.419L83.9671 41.6222L82.5685 41.1598L80.6663 39.0923L79.3619 38.5622L80.8459 37.3694L88.8549 36.3269L89.3968 36.1295L89.9768 35.6171L90.3331 34.8955L90.2065 34.0797L89.8178 34.0002L87.9863 34.8278L83.1603 35.6436L83.4518 35.2548L83.6727 35.0811L84.2409 34.8278L83.9377 34.548L83.1633 34.0797L82.221 35.5081L80.6516 36.1619L77.1476 36.321L77.766 34.6511L78.0575 32.3392L78.458 30.6958L79.3678 31.0845L80.4042 29.5972L79.7653 29.017L79.1263 28.1306L78.7288 27.035L78.773 25.854H79.0851L80.4632 26.1043L80.9932 25.854L82.8747 26.1397L85.1567 24.9351L96.7138 16.0526L97.0053 17.263L97.6708 17.9021L98.5483 17.9875L99.4758 17.5546L98.6395 17.6076L98.3892 17.5546V16.8684L98.7278 16.6622L99.1106 16.3L99.4758 16.0555L97.9446 14.8038L97.7208 13.6346L98.1007 12.4536L98.3892 11.1813L98.8839 10.2418L100.059 9.94731L102.721 9.98854L105.085 9.31706L107.326 7.96819L109.296 6.13926L110.85 3.98636L113.05 4.32505L113.986 5.90954L114.587 7.85038L115.776 9.30233V9.9856L115.317 9.71759L114.522 9.49082L114.101 9.30233L113.542 10.2418L113.174 11.2196L113.132 12.1591L113.609 12.9808L112.788 13.6258L112.532 13.508L111.931 12.9808L111.427 13.4991L111.218 13.6611L110.847 13.8054V14.5476L114.831 14.7626L115.559 13.9497L114.101 11.5495L115.02 10.8927L115.986 10.8515L117.947 11.5495L117.77 11.1872L117.567 10.3832L117.402 9.97971L118.518 8.73097L119.958 7.52053L121.551 6.58986L124.707 5.76817L126.397 4.6019L127.752 3.04098L128.297 1.37992L128.556 1L129.127 1.32691L129.686 2.16333L129.922 3.30015L129.583 3.94513L127.755 6.22761L127.714 7.81209L128.079 8.28331L128.679 8.12133L129.38 7.8003L129.507 7.49991L129.463 6.96684L129.595 6.45733L130.219 6.23055L130.743 6.16282L132.092 5.48838L132.363 6.98156L134.315 10.8043L134.082 12.5331L134.78 12.2504L135.778 10.8691L136.426 9.29939L137.389 9.67341L138.093 9.09617L138.858 8.23619L139.998 7.79442L143.125 8.15667L144.067 8.48653L150.619 12.2327L153.84 13.4579L158.837 22.3993L162.597 24.2607L162.326 24.7113L162.158 25.0647L161.932 25.371L161.46 25.6832V26.5048L162.52 26.9967L163.162 26.6992L163.766 26.1073L164.711 25.689L165.874 25.6861L167.505 26.2516L170.515 26.7139L175.367 26.5255L176.678 25.6861L178.085 26.4577L179.457 26.6992L180.405 27.4002L180.523 29.5678L179.978 30.7724L179.13 32.0653L178.718 33.5879L179.437 35.4846H179.495H179.934L180.379 33.7028L180.632 31.8768L181.091 30.3806L182.154 29.5707L182.867 27.0026L187.425 25.9806L195.207 25.692L196.415 26.0749L201.17 25.692L204.438 26.6639L206.496 26.9054L210.866 24.5522L214.912 24.9704L218.969 26.4371L221.867 28.0098L222.697 27.3943L223.601 27.1705L225.609 27.1881L225.468 26.6698L225.268 25.4446L225.123 24.9498L226.219 25.1736L228.086 26.2604L229.21 26.5107L233.3 25.689H237.39L238.547 25.4711L240.62 24.4845L242.519 23.9985L243.002 23.4242L243.597 22.8764L244.681 22.7027L247.204 24.6023L248.232 24.9498L254.395 25.6272L255.623 24.9498L256.877 25.5742L258.066 25.0382L259.256 24.1016L260.501 23.5185H269.721L270.133 22.523L269.603 21.7102L269.267 20.8384L270.257 19.7016L270.101 19.3452L269.88 18.5412L269.718 18.2114L272.277 18.2172L273.201 17.7077L273.557 16.3677L274.099 15.3457L275.36 15.4253L277.939 16.7123L279.644 18.1907L284.004 23.3977L285.477 25.689H286.021L286.434 24.134L287.034 24.6023L287.965 26.5107L292.084 27.1881L308.07 26.5107L310.478 27.1557L310.729 28.6813L309.71 30.4248L308.341 31.7442L308.886 32.4923L309.698 31.9916L311.368 31.4114L312.177 30.9932L312.758 30.2805L312.987 29.5501L313.417 28.9788L314.595 28.7549L317.934 29.0789L319.194 29.5383L324.918 33.3847L327.618 34.3684L334.464 34.707L336.367 35.2401L337.215 36.6391L338.169 36.0147L343.716 37.714L344.355 37.4814L345.512 36.4741L346.425 36.2915L347.282 36.536L349.078 37.5049L354.722 38.6918L361.197 41.7665L362.79 42.2643L380.463 43.834L380.793 43.8664L382.896 45.9251L384.553 44.2758L386.797 43.8487L388.991 44.4613L390.525 45.9251H391.025L391.859 44.5497L392.603 44.1668L396.299 44.5938L406.16 43.5454L408.354 41.8195L413.374 40.241L415.261 39.9523H418.815L419.275 39.6578L419.342 39.1336L419.475 38.627L420.12 38.3943L420.682 38.5799L422.608 39.9494L423.003 39.4369L423.359 39.3044L423.742 39.3014L424.23 39.2043L423.877 39.0128L423.15 38.3943V37.7081L425.891 35.6996L427.266 35.0987L428.568 35.4728L429.563 34.8484L429.795 34.978L430.193 35.4728L432.498 34.0297L434.886 33.5231L437.245 33.9914L439.456 35.4728L436.002 37.0396L434.548 38.0115L433.488 39.2043L434.318 40.2085L434.683 40.5119L435.113 40.7711L434.842 40.8506L434.627 40.8418L434.504 40.9566L434.524 41.4455L435.402 41.4808L436.117 41.3483L437.283 40.7711L437.837 40.2144L438.897 38.7065L439.206 38.3943L439.904 38.6388L440.646 39.7079L441.373 39.9523L441.712 39.5076L441.529 38.521L441.064 37.4961L440.537 36.9719V36.2915L441.647 36.4565L442.106 36.6125L442.651 36.9719L442.787 36.4241H442.893L443.24 36.2915L442.648 35.4757L443.517 35.087L445.861 34.922L446.765 34.3507L447.554 33.5614L448.425 33.1196L454.512 31.1964L456.502 31.3437L456.349 33.2286L457.715 33.3081L458.781 34.1092L459.647 35.031L460.389 35.4728L465.845 36.427L466.251 36.8216L466.507 37.3842L466.599 38.0527L466.484 39.0128L466.166 39.1689L465.668 39.0452L465.023 39.2043L464.694 38.9186L463.946 38.4238L463.195 38.2088L462.853 38.7978L462.582 39.4251L461.943 40.026L460.683 40.7681L462.261 41.0656L463.162 42.2966L463.905 42.7679L465.023 40.7652L465.883 42.0522L466.99 42.1553L469.352 41.4426L470.497 41.6664L474.287 43.0005L479.157 43.6809L482.761 45.0474L483.795 45.2418L484.628 45.713L486.462 47.8188L488.529 48.4755L490.066 48.9585L491.586 49.1441L493.403 47.7451L495.914 49.3326L499.86 52.7666V51.9449L498.921 49.309L498.65 47.9572L498.184 47.1708V46.732L498.579 46.2107L499.639 45.8603L500.558 44.7441L504.012 42.6147L505.281 42.2584V41.4396H504.745V40.7622L506.064 39.9788L508.034 39.7668L512.085 39.9435L515.837 39.5695L517.506 38.8921L518.881 38.3855L519.897 38.63L521.558 39.8846L523.124 41.4455L523.813 42.6294L524.735 45.3684L525.044 47.6715L525.365 47.2445L525.977 45.2359L526.042 44.7117L526.016 44.0637L526.092 43.4511L526.478 42.9976L527.411 42.8238L528.354 43.0859L529.246 43.4776L531.719 43.9224L536.324 45.9192L539.728 46.626L541.516 47.3358L543.029 49.6742L550.729 53.335L553.933 54.304L557.298 54.6692L560.755 54.2598L563.393 53.5235L564.315 53.4381L564.78 53.7856L565.334 54.5572L566.046 55.3289L567.018 55.6764L567.227 55.5556L567.486 55.3023L567.866 55.0491L568.396 54.9283L568.776 55.1669L568.953 55.6764L569.188 56.1829L569.747 56.4186L572.044 54.5955L573.034 54.2568L574.712 54.0124L580.342 51.9567L582.153 50.7786L583.06 50.3575L584.229 50.4075L585.174 51.1733L585.739 52.2394L586.366 52.7725L587.479 51.9596L587.038 51.6386L586.352 50.8523L585.81 50.4075L589.046 48.9468L592.023 46.2255L594.891 44.6793L596.263 45.6659ZM896.145 148.101L894.34 147.835L893.298 147.026L893.151 145.671L894.019 143.739L894.923 143.315L895.745 144.469L896.548 146.278L897.426 147.815L897.155 147.93L896.366 148.101H896.145ZM680.519 635.611L679.795 637.841L679.931 640.156L681.017 643.896L679.395 642.032L679.053 639.072L679.124 635.782L678.791 632.934L679.194 632.884L679.292 633.055V633.326L679.389 633.556L679.654 633.98L680.137 635.016L680.519 635.611ZM859.866 541.62L862.987 540.224L864.312 541.909L864.236 544.13L862.339 544.56L859.636 544.504L855.729 541.941L854.448 541.255L852.911 542.38L852.142 542.922L850.853 544.804L849.598 545.596L848.485 545.249L848.851 543.184L848.527 542.41V541.352L848.939 540.669L849.307 539.738L849.339 538.931L848.765 538.578L848.474 538.18L848.933 537.415L849.917 536.275L850.473 536.87L851.277 536.522L852.051 535.353L852.322 533.774L852.646 533.724L852.737 533.86V534.104L852.814 534.346L856.671 539.912L859.866 541.62ZM866.185 499.437L865.778 500.347L866.261 502.394L867.542 505.784L866.223 505.866L865.178 506.697L864.492 508.008L864.233 509.592L863.817 510.216L861.041 512.06L858.547 515.9L857.552 516.749L855.349 517.933L854.489 518.966L854.192 518.569L853.674 518.083L853.403 517.638L852.098 519.329L851 519.938L850.161 523.393L850.078 525.887L847.502 525.935L846.725 523.885L845.349 522.819L844.187 523.275H843.645L843.374 523.151L843.303 523.078L842.514 523.278L841.919 521.997L840.583 521.573L839.246 522.009L838.716 523.278L836.195 521.573L835.279 520.507L834.923 518.654L835.886 516.192L836.145 514.696L835.421 513.462L836.08 512.837L836.881 512.331L837.785 512.207L838.716 512.764L839.299 512.24L840.061 512.039L841.972 512.063L841.28 507.76L841.324 505.369L842.249 504.329L843.288 503.905L844.478 502.918L846.404 500.833H846.901L847.632 501.469L849.195 500.25L850.099 500.833L851.674 499.508L853.859 498.359L856.082 497.753L857.737 498.044L858.461 497.075L859.58 496.613L860.723 496.701L862.027 497.764L862.569 497.953L863.997 498.05L864.895 498.268L865.549 498.742L866.185 499.437ZM1004.99 428.18L1007.27 428.845L1011.76 431.528L1014.51 431.764L1014.05 432.836L1014.12 433.69L1014.38 434.462L1014.51 435.292L1014.21 435.831L1013.72 436.235L1013.48 436.888L1013.97 438.178L1012.88 441.053L1012.04 442.487L1010.98 443.1L1009.65 443.592L1008.75 444.811L1008.5 446.41L1009.08 448.033L1005.86 451.013L1002.51 455.048L1000.01 459.996L999.276 465.721L998.502 465.244L998.193 464.956L996.906 469.208L994.4 471.909L987.124 476.442L984.074 479.077L983.461 480.099L983.132 480.429L982.407 480.956L981.677 481.233L981.347 480.833L979.177 477.584L978.673 477.222L977.434 476.651L976.957 476.247L976.595 475.296L976.427 474.168L976.168 473.211L975.599 472.813L974.825 472.575L973.585 471.573L972.888 471.341L971.945 471.458L970.691 471.936L969.917 472.045L962.997 471.538L959.914 470.272L957.938 467.777L957.105 462.167L955.942 461.413L956.174 459.746L957.397 457.242L956.493 455.107L954.237 453.034L951.581 451.476L949.487 450.851L947.756 451.414L942.645 454.271L941.579 455.452L940.725 458.238L938.761 460.311L936.576 460.579L935.077 457.949L934.909 457.731L934.697 456.909L934.951 456.264L935.622 455.846L933.502 453.664L932.857 454.545L932.25 454.921L931.694 454.665L931.282 453.664L929.085 454.945L928.576 455.072L927.801 454.506L927.136 452.66L925.702 451.479L925.313 449.644L925.39 447.556L925.861 445.995L931.553 442.408L933.225 442.031L934.639 441.1L938.555 436.894L939.73 436.252L941.32 436.014L942.689 435.56L944.031 434.45L946.499 431.779L946.835 431.287L947.403 430.006L947.583 429.67L947.951 429.579L948.86 429.764L949.211 429.673L951.13 427.714L951.384 427.205L951.731 426.978L953.348 425.123L953.878 424.669L954.458 424.504L956.796 423.317L957.932 422.395L958.842 421.453L959.767 420.72L960.942 420.425L961.227 420.213L961.731 419.288L962.022 419.076L963.683 419.224L964.431 419.076L966.769 417.948L971.551 414.738L973.998 414.07L978.456 413.637L982.855 412.503L991.09 409.119L992.177 410.535L992.598 410.103L992.831 409.976L993.852 410.535L993.013 411.151L990.222 412.473L989.2 412.718L988.031 413.333L986.965 414.514L986.014 415.336L985.128 414.844H984.539L984.365 418.187L987.183 418.685L993.263 416.968V417.607L992.468 418.187L992.371 418.876L992.442 419.642L992.177 420.425L991.706 420.964L991.252 421.27L989.96 421.839L987.448 422.496L986.874 423.291L986.759 425.438L987.684 427.747L989.757 429.779L992.315 431.237L994.621 431.785H1000.07L1001.45 431.231L1003.87 428.76L1004.99 428.18ZM1080.29 413.581L1080.64 415.13L1082.34 417.934L1083 419.618H1082.46L1082.14 418.97L1081.62 418.372L1080.99 417.86L1080.29 417.507L1080.06 424.316L1075.94 424.863L1070.3 422.086L1057.43 413.557L1054.76 412.491L1051.58 412.42L1045.86 413.584L1042.8 412.491L1043.13 411.257L1043.2 409.761L1043.47 408.4L1044.37 407.54L1043.73 406.966L1042.11 406.371L1041.39 405.744L1040.63 404.504L1040.61 403.988L1040.92 403.455L1041.11 402.198L1042.09 400.928L1047.62 399.691L1049.52 400.478L1057.18 399.691L1060.37 399.836L1061.27 399.691L1062.39 399.203L1063.73 398.119L1064.58 397.633L1064.8 398.858L1065.51 399.686L1067.28 401.108L1067.11 401.408L1066.94 402.168L1066.99 402.946L1067.53 403.299L1068.03 402.987L1068.62 402.277L1069.4 401.108L1069.24 399.588L1069.77 399.17L1070.25 399.727L1069.94 401.108L1070.42 401.841L1072.65 403.296L1073.11 404.08L1073.45 404.56L1074.28 405.358L1074.71 405.585L1075.88 405.826L1076.45 406.129L1077.27 407.275L1077.94 408.977L1077.86 410.491L1076.45 411.077L1077.68 411.693L1078.93 411.604L1079.9 411.878L1080.29 413.581ZM975.691 491.774L975.446 494.536L973.847 496.904L971.362 496.686L969.993 493.229L972.122 491.185L975.311 489.789L975.691 491.774ZM397.321 889.885L397.427 889.897L397.571 889.932L397.506 890L397.374 889.988L397.25 889.947L397.173 889.888L397.238 889.865L397.321 889.885ZM428.844 885.747L428.894 885.688L428.924 885.729L428.877 885.794L428.83 885.771L428.844 885.747ZM429.021 885.503L429.083 885.5L429.095 885.556L429.042 885.55L429 885.562L428.977 885.553L428.98 885.523L429.021 885.503ZM545.444 888.669L545.829 888.589L546.059 888.969L545.667 889.293L545.314 889.058L545.444 888.669ZM308.509 817.388L308.732 817.591L308.579 817.85L308.391 817.776L308.344 817.517L308.509 817.388Z" fill="#3B482A" stroke="white" stroke-opacity="0.3" stroke-linecap="round" stroke-linejoin="round"/>
</svg>
